HIERARCHY
ROOT root
{
	OFFSET	0	13.1	24.9
	CHANNELS 6  Xposition Yposition Zposition Xrotation Yrotation Zrotation
	JOINT spine_1
	{
		OFFSET	0	9.99999	0
		CHANNELS 3  Xrotation Yrotation Zrotation
		JOINT spine_2
		{
			OFFSET	0	112	-10
			CHANNELS 3  Xrotation Yrotation Zrotation
			JOINT spine_3
			{
				OFFSET	0	206.5	19.3
				CHANNELS 3  Xrotation Yrotation Zrotation
				JOINT spine_4
				{
					OFFSET	0	110.4	14.6
					CHANNELS 3  Xrotation Yrotation Zrotation
					JOINT neck_1
					{
						OFFSET	0	71.8	-50.3
						CHANNELS 3  Xrotation Yrotation Zrotation
						JOINT neck_2
						{
							OFFSET	0	86.2	-25.8
							CHANNELS 3  Xrotation Yrotation Zrotation
							JOINT head_ee
							{
								OFFSET	0	179.8	-8.7
								CHANNELS 3  Xrotation Yrotation Zrotation
								End Site
								{
									OFFSET	1	0	0
								}
							}
						}
					}
					JOINT left_clavicle
					{
						OFFSET	-43.2	22.4	-70.8
						CHANNELS 3  Xrotation Yrotation Zrotation
						JOINT left_shoulder
						{
							OFFSET	-93.9	-5.79999	48.7
							CHANNELS 3  Xrotation Yrotation Zrotation
							JOINT left_elbow
							{
								OFFSET	-291.4	-30.8	15.2
								CHANNELS 3  Xrotation Yrotation Zrotation
								JOINT left_lowarm_twist
								{
									OFFSET	-110.7	-3.89999	13.6
									CHANNELS 3  Xrotation Yrotation Zrotation
									JOINT left_hand
									{
										OFFSET	-110.7	-3.89999	13.6
										CHANNELS 3  Xrotation Yrotation Zrotation
										JOINT left_ee
										{
											OFFSET	-80.8	-5.10001	12.1
											CHANNELS 3  Xrotation Yrotation Zrotation
											End Site
											{
												OFFSET	1	0	0
											}
										}
									}
								}
							}
						}
					}
					JOINT right_clavicle
					{
						OFFSET	43.2	22.4	-70.8
						CHANNELS 3  Xrotation Yrotation Zrotation
						JOINT right_shoulder
						{
							OFFSET	93.9	-5.79999	48.7
							CHANNELS 3  Xrotation Yrotation Zrotation
							JOINT right_elbow
							{
								OFFSET	291.4	-30.8	15.2
								CHANNELS 3  Xrotation Yrotation Zrotation
								JOINT right_lowarm_twist
								{
									OFFSET	110.7	-3.89999	13.6
									CHANNELS 3  Xrotation Yrotation Zrotation
									JOINT right_hand
									{
										OFFSET	110.7	-3.89999	13.6
										CHANNELS 3  Xrotation Yrotation Zrotation
										JOINT right_ee
										{
											OFFSET	80.8	-5.10001	12.1
											CHANNELS 3  Xrotation Yrotation Zrotation
											End Site
											{
												OFFSET	1	0	0
											}
										}
									}
								}
							}
						}
					}
				}
			}
		}
	}
	JOINT left_hip
	{
		OFFSET	-82.8	-127.5	0.300001
		CHANNELS 3  Xrotation Yrotation Zrotation
		JOINT left_knee
		{
			OFFSET	-28.2	-396.7	2.2
			CHANNELS 3  Xrotation Yrotation Zrotation
			JOINT left_ankle
			{
				OFFSET	-11.7	-411.3	35.4
				CHANNELS 3  Xrotation Yrotation Zrotation
				JOINT left_toes
				{
					OFFSET	0	-60	-88.6
					CHANNELS 3  Xrotation Yrotation Zrotation
					JOINT left_foot_ee
					{
						OFFSET	-22.5	-16.5	-42.2
						CHANNELS 3  Xrotation Yrotation Zrotation
						End Site
						{
							OFFSET	1	0	0
						}
					}
				}
			}
		}
	}
	JOINT right_hip
	{
		OFFSET	82.8	-127.5	0.300001
		CHANNELS 3  Xrotation Yrotation Zrotation
		JOINT right_knee
		{
			OFFSET	28.2	-396.7	2.2
			CHANNELS 3  Xrotation Yrotation Zrotation
			JOINT right_ankle
			{
				OFFSET	11.7	-411.3	35.4
				CHANNELS 3  Xrotation Yrotation Zrotation
				JOINT right_toes
				{
					OFFSET	0	-60	-88.6
					CHANNELS 3  Xrotation Yrotation Zrotation
					JOINT right_foot_ee
					{
						OFFSET	22.5	-16.5	-42.2
						CHANNELS 3  Xrotation Yrotation Zrotation
						End Site
						{
							OFFSET	1	0	0
						}
					}
				}
			}
		}
	}
}
MOTION
Frames: 5
Frame Time: 0.02
253.406 684.059 -1494.61 178.537 -73.7095 175.999 -1.23001 -0.208734 -0.45504 -1.22991 -0.179356 -0.4674 -1.22832 -0.0664957 -0.496195 -1.22863 -0.144025 -0.479466 -1.57415 -3.11645 -0.943012 -1.56107 -4.85951 -1.38878 -0.0 0.0 -0.0 8.50517 -14.0223 16.4478 -42.6646 -72.0562 50.3934 0.251717 -7.10786 0.0156335 14.2295 0.280183 -1.79145 -0.0752264 1.49168 0.127185 -0.0 0.0 -0.0 11.5476 21.9739 -22.7456 -55.9025 55.5287 -32.9251 0.556859 15.4218 -0.0753987 -18.0842 0.975291 -2.08704 -0.757719 23.7582 15.1341 0.0 0.0 0.0 14.3259 15.1112 -5.7166 -20.9269 0.28347 3.18106 34.2478 -7.52679 -4.4411 -15.9296 0.0 0.0 -0.0 0.0 -0.0 3.66953 -8.65352 4.68643 -9.92111 -0.279631 -1.495 22.4659 -11.7386 3.04247 9.89653 -0.0 -0.0 0.0 0.0 0.0 
258.293 683.746 -1492.98 179.21 -73.2269 176.451 -1.01297 -0.106437 -0.324096 -1.01291 -0.0855985 -0.330212 -1.01236 -0.00826044 -0.341026 -1.01252 -0.0620151 -0.335441 0.085255 -3.15125 0.162395 0.109761 -5.74476 -0.155504 -0.0 0.0 -0.0 8.82404 -13.4454 17.1687 -48.9895 -72.2119 45.8708 0.217232 -6.14212 0.0116549 13.8911 0.278718 -1.74825 0.00907755 1.53382 0.705455 -0.0 0.0 -0.0 11.6711 23.8138 -22.8601 -55.6593 55.4321 -35.0606 0.611445 16.8513 -0.0905707 -16.9298 0.893703 -1.9638 -0.757864 23.5099 15.0357 0.0 0.0 0.0 14.5122 18.4005 -6.45618 -20.7833 0.285504 3.15912 32.5133 -6.51939 -4.24886 -16.0812 0.0 0.0 -0.0 0.0 -0.0 3.42114 -8.4723 4.94965 -9.23361 -0.268646 -1.39008 19.9458 -14.4872 2.74653 9.24353 -0.0 -0.0 0.0 0.0 0.0 
259.304 683.319 -1497.2 -179.373 -73.8089 177.62 -0.701052 -0.131821 -0.198173 -0.701038 -0.118944 -0.206159 -0.700587 -0.070182 -0.227428 -0.700643 -0.105219 -0.21349 -2.2093 -2.93548 -0.306364 -2.1971 -5.06596 -0.715759 -0.0 0.0 -0.0 8.48334 -13.2426 16.4351 -47.0533 -72.1729 48.047 0.282915 -7.9781 0.0197291 13.8124 0.27834 -1.7382 0.0346417 1.1417 0.711048 -0.0 0.0 -0.0 11.4228 21.8501 -22.4716 -55.3271 55.853 -35.418 0.576619 15.9416 -0.0807396 -17.4384 0.929339 -2.01829 -0.809963 21.8521 14.7203 0.0 0.0 0.0 14.728 17.8976 -5.48518 -20.6041 0.287968 3.13174 34.8588 -8.59573 -4.52157 -14.6226 0.0 0.0 -0.0 0.0 -0.0 3.60964 -10.5179 5.52377 -7.99167 -0.245613 -1.2009 20.2026 -10.7685 2.76141 9.09536 -0.0 -0.0 0.0 0.0 0.0 
263.835 684.541 -1504.05 -179.677 -72.5544 177.205 -0.487994 0.0129246 -0.229674 -0.487965 0.0275131 -0.228386 -0.488063 0.0767502 -0.216856 -0.488126 0.0415388 -0.226255 -3.30731 -3.22843 -1.05329 -3.29668 -5.06094 -1.57346 -0.0 0.0 -0.0 8.55051 -12.0221 16.6292 -48.7819 -72.5216 47.4733 0.390551 -10.9498 0.0374333 13.3022 0.275559 -1.6731 -0.125202 2.06058 0.0349233 -0.0 0.0 -0.0 11.5141 22.5694 -22.6177 -53.6167 55.6959 -37.6607 0.489008 13.6172 -0.0583857 -16.4542 0.860816 -1.91256 -0.750183 21.199 14.0502 0.0 0.0 0.0 14.5426 21.108 -5.4047 -20.7846 0.285487 3.15932 33.3427 -5.43284 -4.31633 -15.4728 0.0 0.0 -0.0 0.0 -0.0 3.47099 -9.75955 6.09844 -7.55691 -0.236581 -1.13479 18.4812 -13.7686 2.55715 8.37859 -0.0 -0.0 0.0 0.0 0.0 
268.476 685.251 -1509.96 179.426 -72.2294 176.261 -0.327288 0.0551529 -0.172695 -0.327274 0.0660302 -0.168836 -0.327468 0.100903 -0.150612 -0.327491 0.0758506 -0.164658 -5.25452 -3.26461 -1.75454 -5.24445 -4.69741 -2.35926 -0.0 0.0 -0.0 8.35289 -12.1528 16.1966 -49.2684 -72.5872 47.6657 0.520723 -14.4644 0.0660803 13.4153 0.276225 -1.68752 -0.188476 2.28286 -0.291046 -0.0 0.0 -0.0 11.6102 22.7336 -22.8221 -52.9222 55.6928 -39.0484 0.406783 11.3932 -0.0405781 -16.2509 0.846884 -1.89057 -0.617286 20.8315 13.0008 0.0 0.0 0.0 14.0848 22.3839 -4.67352 -20.8397 0.284712 3.16774 31.5467 -4.33274 -4.11708 -16.1536 0.0 0.0 -0.0 0.0 -0.0 3.18922 -10.493 6.56256 -6.96871 -0.223564 -1.04547 17.6175 -14.5371 2.45045 7.95764 -0.0 -0.0 0.0 0.0 0.0 
